<svg id="XMLID_1_" xmlns="http://www.w3.org/2000/svg" width="68.983" height="68.464" viewBox="0 0 68.983 68.464">
  <path id="Path_60" data-name="Path 60" d="M14.937,9.09,40.26,14.12a4.247,4.247,0,0,1,3.42,4.2V47.634a4.306,4.306,0,0,1-4.311,4.311H13.5a1.423,1.423,0,0,0,1.437-1.437V49.071H39.369a1.441,1.441,0,0,0,1.437-1.437V18.316a1.444,1.444,0,0,0-1.121-1.408L14.937,12.022Z" transform="translate(25.303 16.518)" fill="#008437"/>
  <path id="Path_61" data-name="Path 61" d="M24.186,14a1.437,1.437,0,1,1,0,2.874H18.437a1.437,1.437,0,1,1,0-2.874Z" transform="translate(31.863 25.721)" fill="#008437"/>
  <path id="Path_62" data-name="Path 62" d="M24.186,17a1.437,1.437,0,1,1,0,2.874H18.437a1.437,1.437,0,1,1,0-2.874Z" transform="translate(31.863 31.344)" fill="#008437"/>
  <path id="Path_63" data-name="Path 63" d="M24.186,20a1.437,1.437,0,0,1,0,2.874H18.437a1.437,1.437,0,1,1,0-2.874Z" transform="translate(31.863 36.967)" fill="#008437"/>
  <path id="Path_64" data-name="Path 64" d="M15.874,50.677a1.437,1.437,0,0,1-2.874,0V10.437a1.528,1.528,0,0,1,.517-1.121,1.511,1.511,0,0,1,1.207-.287l1.15.23V50.677Z" transform="translate(24.366 16.35)" fill="#008437"/>
  <path id="Path_65" data-name="Path 65" d="M19.56,23v1.437A1.423,1.423,0,0,0,21,25.874H9.5a1.423,1.423,0,0,0,1.437-1.437V23Z" transform="translate(17.806 42.59)" fill="#008437"/>
  <path id="Path_66" data-name="Path 66" d="M15.186,5a1.437,1.437,0,1,1,0,2.874H9.437A1.437,1.437,0,1,1,9.437,5Z" transform="translate(14.994 8.852)" fill="#008437"/>
  <path id="Path_67" data-name="Path 67" d="M16.623,9.437a1.423,1.423,0,0,1-1.437,1.437H9.437A1.437,1.437,0,1,1,9.437,8h5.749A1.423,1.423,0,0,1,16.623,9.437Z" transform="translate(14.994 14.475)" fill="#008437"/>
  <path id="Path_68" data-name="Path 68" d="M15.186,11a1.437,1.437,0,1,1,0,2.874H9.437a1.437,1.437,0,1,1,0-2.874Z" transform="translate(14.994 20.098)" fill="#008437"/>
  <path id="Path_69" data-name="Path 69" d="M15.186,14a1.437,1.437,0,1,1,0,2.874H9.437a1.437,1.437,0,1,1,0-2.874Z" transform="translate(14.994 25.721)" fill="#008437"/>
  <path id="Path_70" data-name="Path 70" d="M11.623,15.437a1.423,1.423,0,0,1-1.437,1.437H4.437a1.437,1.437,0,1,1,0-2.874h5.749A1.423,1.423,0,0,1,11.623,15.437Z" transform="translate(5.623 25.721)" fill="#008437"/>
  <path id="Path_71" data-name="Path 71" d="M10.186,5a1.437,1.437,0,1,1,0,2.874H4.437A1.437,1.437,0,1,1,4.437,5Z" transform="translate(5.623 8.852)" fill="#008437"/>
  <path id="Path_72" data-name="Path 72" d="M10.186,8a1.437,1.437,0,1,1,0,2.874H4.437A1.437,1.437,0,1,1,4.437,8Z" transform="translate(5.623 14.475)" fill="#008437"/>
  <path id="Path_73" data-name="Path 73" d="M10.186,11a1.437,1.437,0,1,1,0,2.874H4.437a1.437,1.437,0,1,1,0-2.874Z" transform="translate(5.623 20.098)" fill="#008437"/>
  <path id="Path_74" data-name="Path 74" d="M18.371,21.311a1.441,1.441,0,0,0-1.437-1.437H8.311a1.423,1.423,0,0,0-1.437,1.437V34.246H4V21.311A4.306,4.306,0,0,1,8.311,17h8.623a4.306,4.306,0,0,1,4.311,4.311V34.246H18.371Z" transform="translate(7.497 31.344)" fill="#008437"/>
  <path id="Path_75" data-name="Path 75" d="M6.874,23H21.246v1.437a1.423,1.423,0,0,1-1.437,1.437H5.437A1.423,1.423,0,0,1,4,24.437V23Z" transform="translate(7.497 42.59)" fill="#008437"/>
  <path id="Path_76" data-name="Path 76" d="M5.03.236l31.588,4.8A4.3,4.3,0,0,1,40.24,9.29v16.5l-1.15-.23a1.511,1.511,0,0,0-1.207.287,1.528,1.528,0,0,0-.517,1.121V9.29a1.453,1.453,0,0,0-1.207-1.437L4.57,3.082a.8.8,0,0,0-.259-.029,1.356,1.356,0,0,0-.92.345A1.374,1.374,0,0,0,2.874,4.49V64.333A1.441,1.441,0,0,0,4.311,65.77H11.5v1.437a1.423,1.423,0,0,0,1.437,1.437H4.311A4.306,4.306,0,0,1,0,64.333V4.49A4.232,4.232,0,0,1,1.523,1.214,4.314,4.314,0,0,1,5.03.236Z" transform="translate(0 -0.181)" fill="#008437"/>
</svg>
