<svg id="wallet_1_" data-name="wallet (1)" xmlns="http://www.w3.org/2000/svg" width="76.48" height="68.436" viewBox="0 0 76.48 68.436">
  <path id="Path_77" data-name="Path 77" d="M68.4,38.65a1.291,1.291,0,0,1-1.291-1.291V21.167H54.2a1.291,1.291,0,0,1,0-2.582H68.4a1.291,1.291,0,0,1,1.291,1.291V37.361A1.291,1.291,0,0,1,68.4,38.65Z" transform="translate(2.619 -4.379)" fill="#008437"/>
  <path id="Path_78" data-name="Path 78" d="M72.831,73.382H12.788A10.988,10.988,0,0,1,1.812,62.406V13.339a1.291,1.291,0,0,1,2.582,0V62.407A8.4,8.4,0,0,0,12.788,70.8H71.54V53.422a1.291,1.291,0,0,1,2.582,0v18.67a1.291,1.291,0,0,1-1.291,1.29Z" transform="translate(-1.812 -4.946)" fill="#008437"/>
  <path id="Path_79" data-name="Path 79" d="M71.88,52.751H55a9.038,9.038,0,1,1,0-18.077H71.88a2.585,2.585,0,0,1,2.582,2.582V50.169a2.585,2.585,0,0,1-2.582,2.582Zm0-15.495H55a6.456,6.456,0,1,0,0,12.913H71.88Z" transform="translate(2.017 -2.984)" fill="#008437"/>
  <path id="Path_80" data-name="Path 80" d="M58.627,22.3H10.2a8.393,8.393,0,1,1,0-16.786H57.331a2.594,2.594,0,0,1,2.588,2.594v12.9A1.291,1.291,0,0,1,58.627,22.3ZM10.2,8.1a5.811,5.811,0,1,0,0,11.621H57.331V8.107Z" transform="translate(-1.812 -5.513)" fill="#008437"/>
  <path id="Path_81" data-name="Path 81" d="M57.613,14.63H14.8a1.291,1.291,0,1,1,0-2.582H57.613a1.291,1.291,0,1,1,0,2.582Z" transform="translate(-0.798 -4.946)" fill="#008437"/>
  <path id="Path_82" data-name="Path 82" d="M55.672,47.347a4.315,4.315,0,1,1,4.316-4.314A4.315,4.315,0,0,1,55.672,47.347Zm0-6.352a2.037,2.037,0,1,0,2.034,2.038,2.037,2.037,0,0,0-2.034-2.038Z" transform="translate(2.485 -2.633)" fill="#008437"/>
</svg>
