<svg id="delivery-truck" xmlns="http://www.w3.org/2000/svg" width="115.144" height="68.436" viewBox="0 0 115.144 68.436">
  <g id="Group_19" data-name="Group 19" transform="translate(0 0)">
    <g id="Group_18" data-name="Group 18">
      <path id="Path_83" data-name="Path 83" d="M100.751,145.214a1.8,1.8,0,0,0-1.8,1.8V159.62H96.09a11.37,11.37,0,0,0-22.6,0H35.983V107.445H98.952V113.1a1.8,1.8,0,0,0,3.6,0v-7.457a1.8,1.8,0,0,0-1.8-1.8H34.183a1.8,1.8,0,0,0-1.8,1.8v1.8h-20.6A8.193,8.193,0,0,0,3.6,115.628v2.612a1.8,1.8,0,0,0,1.8,1.8H7.49L6.117,136.528A8.177,8.177,0,0,0,0,144.414V159.62a1.8,1.8,0,0,0,1.8,1.8H5.442a11.684,11.684,0,0,0,23.3,0c.016,0,.029.009.045.009h3.6a1.8,1.8,0,0,0,1.8,1.8H73.656a11.374,11.374,0,0,0,22.27,0h4.825a1.8,1.8,0,0,0,1.8-1.8V147.013A1.8,1.8,0,0,0,100.751,145.214Zm-83.659,23.4a8.1,8.1,0,1,1,8.1-8.1A8.1,8.1,0,0,1,17.092,168.615Zm15.293-10.795h-3.6a1.651,1.651,0,0,0-.311.063,11.68,11.68,0,0,0-22.75-.063H3.6V144.414a4.59,4.59,0,0,1,4.584-4.584h24.2Zm0-21.589H9.751L11.1,120.039H32.384Zm0-19.79H7.2v-.813a4.59,4.59,0,0,1,4.584-4.584h20.6Zm60.171,44.906a7.761,7.761,0,0,1-7.762,7.326h0a7.774,7.774,0,0,1-7.643-6.446,1.619,1.619,0,0,0-.092-1.751,7.761,7.761,0,1,1,15.5.871Z" transform="translate(0 -103.847)" fill="#008437"/>
      <path id="Path_84" data-name="Path 84" d="M346.987,167.847H321.8a1.8,1.8,0,1,0,0,3.6h25.188a1.8,1.8,0,1,0,0-3.6Z" transform="translate(-248.035 -153.454)" fill="#008437"/>
      <path id="Path_85" data-name="Path 85" d="M313.38,255.847H273.8a1.8,1.8,0,1,0,0,3.6H313.38a1.8,1.8,0,1,0,0-3.6Z" transform="translate(-210.83 -221.664)" fill="#008437"/>
      <path id="Path_86" data-name="Path 86" d="M365.59,207.847H345.8a1.8,1.8,0,1,0,0,3.6h19.79a1.8,1.8,0,0,0,0-3.6Z" transform="translate(-266.638 -184.458)" fill="#008437"/>
      <path id="Path_87" data-name="Path 87" d="M465.8,171.445h3.6a1.8,1.8,0,1,0,0-3.6h-3.6a1.8,1.8,0,1,0,0,3.6Z" transform="translate(-359.651 -153.454)" fill="#008437"/>
      <path id="Path_88" data-name="Path 88" d="M477.4,255.847h-3.6a1.8,1.8,0,1,0,0,3.6h3.6a1.8,1.8,0,1,0,0-3.6Z" transform="translate(-365.852 -221.664)" fill="#008437"/>
      <path id="Path_89" data-name="Path 89" d="M473,207.847h-7.2a1.8,1.8,0,1,0,0,3.6H473a1.8,1.8,0,1,0,0-3.6Z" transform="translate(-359.651 -184.458)" fill="#008437"/>
    </g>
  </g>
</svg>
