<svg id="_24-hours" data-name="24-hours" xmlns="http://www.w3.org/2000/svg" width="68.464" height="68.464" viewBox="0 0 68.464 68.464">
  <g id="Group_20" data-name="Group 20" transform="translate(29.668 38.794)">
    <path id="Path_90" data-name="Path 90" d="M363.019,312.962H359.6v-21.68a1.141,1.141,0,0,0-2.076-.654l-15.975,22.821a1.141,1.141,0,0,0,.935,1.795h14.834v3.423a1.141,1.141,0,0,0,2.282,0v-3.423h3.423a1.141,1.141,0,0,0,0-2.282ZM357.313,294.9v18.061H344.67Z" transform="translate(-325.364 -290.139)" fill="#008437"/>
    <path id="Path_91" data-name="Path 91" d="M238.982,317.506H225.473l12.56-14.789c.028-.034.055-.07.08-.106a7.937,7.937,0,0,0-1.791-10.776,9.129,9.129,0,0,0-14.455,7.415,1.141,1.141,0,1,0,2.282,0,6.846,6.846,0,0,1,10.84-5.562,5.633,5.633,0,0,1,1.255,7.605l-14.106,16.617a1.141,1.141,0,0,0,.869,1.879h15.975a1.141,1.141,0,0,0,0-2.282Z" transform="translate(-221.866 -290.118)" fill="#008437"/>
  </g>
  <g id="Group_21" data-name="Group 21">
    <path id="Path_92" data-name="Path 92" d="M30.834,60.5a1.141,1.141,0,0,0-1.1-1.183h0A28.493,28.493,0,0,1,2.322,31.95H6.846a1.141,1.141,0,1,0,0-2.282H2.322A28.459,28.459,0,0,1,29.668,2.323V5.705a1.141,1.141,0,0,0,2.282,0V2.323A28.479,28.479,0,0,1,59.28,29.138l-4.45-4.45A1.141,1.141,0,0,0,53.217,26.3l6.369,6.369a1.124,1.124,0,0,0,.45.327,1.393,1.393,0,0,0,.136.033,1.121,1.121,0,0,0,.242.058h.065a1.15,1.15,0,0,0,.256-.05,1.165,1.165,0,0,0,.139-.026,1.12,1.12,0,0,0,.412-.258L67.741,26.3a1.141,1.141,0,0,0-1.613-1.613l-4.561,4.557A30.76,30.76,0,0,0,30.89.016c-.028,0-.053-.016-.081-.016s-.053.015-.081.016A30.754,30.754,0,0,0,.016,30.728c0,.028-.016.053-.016.081s.015.053.016.081A30.78,30.78,0,0,0,29.652,61.6h.042A1.141,1.141,0,0,0,30.834,60.5Z" fill="#008437"/>
    <path id="Path_93" data-name="Path 93" d="M186.159,113.593a1.142,1.142,0,0,0-1.613,0l-12.262,12.261a3.574,3.574,0,0,0-2.911,0l-5.806-5.806a1.141,1.141,0,0,0-1.613,1.613l5.794,5.794a3.418,3.418,0,0,0,5.5,3.889h0a3.386,3.386,0,0,0,.66-3.888l12.25-12.251A1.142,1.142,0,0,0,186.159,113.593ZM171.636,129.73h0a1.168,1.168,0,0,1-1.613,0,1.141,1.141,0,1,1,1.613,0Z" transform="translate(-140.02 -98.114)" fill="#008437"/>
  </g>
</svg>
