<svg id="customer" xmlns="http://www.w3.org/2000/svg" width="84.018" height="68.562" viewBox="0 0 84.018 68.562">
  <path id="Path_53" data-name="Path 53" d="M200.993,63.271l-.971,5.575a1,1,0,0,0,1.454,1.062l5.015-2.621,5,2.645a1,1,0,0,0,1.46-1.054l-.943-5.58,4.062-3.94a1,1,0,0,0-.552-1.714l-5.6-.828-2.492-5.081a1,1,0,0,0-.9-.562h0a1,1,0,0,0-.9.558L203.113,56.8l-5.6.8a1,1,0,0,0-.561,1.711Zm2.927-4.558a1,1,0,0,0,.758-.548l1.847-3.719,1.828,3.727a1,1,0,0,0,.755.551l4.108.607-2.98,2.892a1,1,0,0,0-.291.888l.692,4.094-3.671-1.941a1,1,0,0,0-.935,0l-3.68,1.923.712-4.091a1,1,0,0,0-.287-.889L199.809,59.3Z" transform="translate(-164.573 -51.174)" fill="#008437"/>
  <path id="Path_54" data-name="Path 54" d="M359.325,91.205l-.852,4.9a1,1,0,0,0,1.454,1.062l4.406-2.3,4.395,2.324a1,1,0,0,0,1.46-1.054l-.828-4.9,3.568-3.462a1,1,0,0,0-.552-1.714l-4.918-.727-2.189-4.464a1,1,0,0,0-.9-.562h0a1,1,0,0,0-.9.558l-2.211,4.452-4.921.7a1,1,0,0,0-.561,1.711Zm2.737-3.979a1,1,0,0,0,.758-.548l1.541-3.1,1.526,3.111a1,1,0,0,0,.755.551l3.427.506-2.487,2.412a1,1,0,0,0-.291.888l.577,3.416-3.063-1.62a1,1,0,0,0-.935,0l-3.071,1.6.594-3.414a1,1,0,0,0-.287-.889l-2.475-2.423Z" transform="translate(-296.815 -75.427)" fill="#008437"/>
  <path id="Path_55" data-name="Path 55" d="M53.447,91.205l-.852,4.9a1,1,0,0,0,1.455,1.062l4.406-2.3,4.4,2.324a1,1,0,0,0,1.46-1.054l-.829-4.9,3.568-3.462a1,1,0,0,0-.552-1.714l-4.919-.727L59.39,80.864a1,1,0,0,0-.9-.562h0a1,1,0,0,0-.9.558l-2.211,4.452-4.921.7a1,1,0,0,0-.561,1.711Zm2.737-3.979a1,1,0,0,0,.758-.547l1.541-3.1,1.526,3.11a1,1,0,0,0,.755.551l3.427.506L61.7,90.156a1,1,0,0,0-.291.888l.577,3.416-3.063-1.62a1,1,0,0,0-.935,0l-3.071,1.6.594-3.414a1,1,0,0,0-.287-.889l-2.475-2.423Z" transform="translate(-42.131 -75.427)" fill="#008437"/>
  <path id="Path_56" data-name="Path 56" d="M215.943,187.146a8.061,8.061,0,0,0-8.052,8.052v4.7a8.052,8.052,0,0,0,16.1,0v-4.7A8.061,8.061,0,0,0,215.943,187.146Zm6.043,12.751a6.043,6.043,0,0,1-12.087,0v-4.7a6.043,6.043,0,0,1,12.087,0Z" transform="translate(-173.934 -164.389)" fill="#008437"/>
  <path id="Path_57" data-name="Path 57" d="M368.43,210.936a7.42,7.42,0,0,0-7.411,7.411v4.271a7.411,7.411,0,0,0,14.822,0v-4.271A7.42,7.42,0,0,0,368.43,210.936Zm5.4,11.682a5.4,5.4,0,1,1-10.805,0v-4.271a5.4,5.4,0,1,1,10.805,0Z" transform="translate(-301.433 -184.197)" fill="#008437"/>
  <path id="Path_58" data-name="Path 58" d="M80.539,313.8h-2.7a.913.913,0,0,1-.912-.912,1,1,0,0,0-1.949-.339L73.9,315.54a2.011,2.011,0,0,1-3.794-.024l-1.027-2.979a1,1,0,0,0-1.659-.383l-.024.024a1,1,0,0,0-.294.71.914.914,0,0,1-.912.912H63.454a8.555,8.555,0,0,0-1.294.1,9.181,9.181,0,0,0-5.754-2.021h-2.97a1.1,1.1,0,0,1-1.1-1.1,1,1,0,0,0-1.949-.339l-1.18,3.291a2.312,2.312,0,0,1-4.363-.028l-1.13-3.278a1,1,0,0,0-1.66-.382l-.027.027a1,1,0,0,0-.293.709,1.1,1.1,0,0,1-1.1,1.1H37.612a9.18,9.18,0,0,0-5.754,2.022,8.551,8.551,0,0,0-1.294-.1h-2.7a.914.914,0,0,1-.912-.912A1,1,0,0,0,25,312.548l-1.073,2.991a2.011,2.011,0,0,1-3.794-.024l-1.027-2.979a1,1,0,0,0-1.66-.383l-.024.024a1,1,0,0,0-.294.71.913.913,0,0,1-.912.912H13.479A8.489,8.489,0,0,0,5,322.279v11.746a1,1,0,0,0,1,1h82.01a1,1,0,0,0,1-1V322.279a8.489,8.489,0,0,0-8.479-8.479Zm-52.154,7.3V333.02H7.008V322.279a6.478,6.478,0,0,1,6.471-6.471h2.739a2.905,2.905,0,0,0,1.7-.549l.314.912a4.019,4.019,0,0,0,7.583.048l.344-.958a2.906,2.906,0,0,0,1.607.547h2.294A9.173,9.173,0,0,0,28.386,321.1ZM63.624,333.02H30.394V321.1a7.226,7.226,0,0,1,7.218-7.218h3.013a3.1,3.1,0,0,0,1.925-.668l.39,1.134a4.321,4.321,0,0,0,8.152.052l.424-1.182a3.1,3.1,0,0,0,1.821.663l.057,0h3.013a7.226,7.226,0,0,1,7.218,7.218Zm23.386,0H65.632V321.1a9.173,9.173,0,0,0-1.678-5.3h2.238a2.905,2.905,0,0,0,1.7-.549l.314.912a4.019,4.019,0,0,0,7.583.048l.344-.958a2.906,2.906,0,0,0,1.607.547h2.794a6.478,6.478,0,0,1,6.471,6.47Z" transform="translate(-5 -266.467)" fill="#008437"/>
  <path id="Path_59" data-name="Path 59" d="M62.422,218.347v4.271a7.411,7.411,0,0,0,14.822,0v-4.271a7.411,7.411,0,1,0-14.822,0Zm12.814,0v4.271a5.4,5.4,0,0,1-10.806,0v-4.271a5.4,5.4,0,1,1,10.806,0Z" transform="translate(-52.811 -184.197)" fill="#008437"/>
</svg>
